<?xml version="1.0" encoding="UTF-8"?>


<svg id="Laptop" xmlns="http://www.w3.org/2000/svg" viewBox="0 0 2176.59 1706.64">
  <g id="Screen">
    <path d="M348.7,1140.85c66.59-16.69,66.74-16.06,133.19-33.3s66.4-17.44,132.85-34.67c66.45-17.24,66.59-16.68,133.04-33.92,66.45-17.24,66.39-17.45,132.85-34.69,66.45-17.24,66.13-18.48,132.58-35.72,66.45-17.24,66.88-15.59,133.33-32.83,66.45-17.24,66.09-18.69,132.68-35.38,18.44-3.46,39.14-21.4,35.75-39.45-14.01-72.17-15.26-71.93-29.32-144.08-14.07-72.16-13.37-72.29-27.44-144.45q-14.07-72.16-28.15-144.31c-14.07-72.16-15.17-71.95-29.23-144.11s-12.65-72.44-26.66-144.61c-3.38-18.05-22.06-30.02-40.5-26.56-68.62,12.86-68.32,14.5-136.94,27.36-68.62,12.86-68.71,12.38-137.34,25.25-68.62,12.86-69.07,10.5-137.69,23.36-68.63,12.86-68.4,14.08-137.02,26.95-68.63,12.86-68.39,14.12-137.01,26.98-68.63,12.86-68.84,11.71-137.47,24.57s-68.83,11.79-137.46,24.65c-18.44,3.46-30.23,22.15-26.84,40.19,13.48,65.33,12.23,65.59,25.88,130.88,13.65,65.3,16,64.8,29.65,130.1,13.65,65.3,13.41,65.35,27.06,130.64,13.65,65.3,11.9,65.66,25.55,130.96,13.65,65.3,14.64,65.09,28.29,130.39,13.65,65.3,12.57,65.52,26.06,130.85,3.38,18.05,21.92,28.4,40.35,24.95Z" style="fill: none; stroke: #f5f5f5; stroke-miterlimit: 10; stroke-width: 5px;"/>
  </g>
  <g id="Top">
    <g id="TopMain">
      <path d="M267.99,1274.37c68.26-18.69,67.78-20.5,135.78-40.07q68.01-19.57,136.05-39.05c68.01-19.57,67.83-20.2,135.84-39.76,68.01-19.57,68.28-18.63,136.29-38.2,68.01-19.57,68.11-19.24,136.12-38.81,68.01-19.57,68.12-19.17,136.14-38.74,68.02-19.57,67.49-21.39,135.5-40.96q68.02-19.57,136.3-38.12c21.93-4.11,46.17-26.89,42.06-48.82-14.17-73.08-16.09-72.71-30.32-145.77-14.23-73.07-12.93-73.32-27.17-146.38q-14.23-73.07-28.56-146.12c-14.23-73.07-15.18-72.88-29.41-145.95q-14.23-73.07-28.39-146.15c-14.23-73.07-13.97-73.12-28.13-146.2-4.11-21.93-25.21-36.18-47.14-32.07-71.41,13.39-71.6,12.38-143.02,25.76-71.42,13.39-71.36,13.71-142.77,27.09-71.42,13.39-71.28,14.1-142.7,27.48-71.42,13.39-71.22,14.42-142.64,27.81s-71.7,11.89-143.12,25.27c-71.42,13.39-71.33,13.86-142.75,27.24-71.42,13.39-71.29,14.1-142.71,27.48-71.42,13.39-71.55,12.68-142.97,26.07-21.93,4.11-37.23,25.16-33.11,47.09,15.16,69.82,15.52,69.75,30.98,139.5,15.47,69.75,15.06,69.84,30.53,139.59,15.47,69.75,15.79,69.68,31.26,139.43,15.47,69.75,17.08,69.39,32.55,139.14,15.47,69.75,14.99,69.86,30.45,139.61,15.47,69.75,14.67,69.93,30.13,139.68,15.47,69.75,15.02,69.84,30.18,139.66,4.11,21.93,26.81,37.35,48.74,33.24Z" style="fill: none; stroke: #f5f5f5; stroke-miterlimit: 10; stroke-width: 5px;"/>
    </g>
    <g id="TopDepth">
      <path d="M86.88,208.21c-47.98,5.05-57.3,5.93-41.8,73.06,3.39,14.7,15.22,65.72,31.73,137.13,9.3,40.2,19.46,87,31.1,137.28,10.09,43.61,21.19,89.85,32.12,137.05s21.05,91.77,31.56,137.18c10.94,47.25,21.45,93.64,31.55,137.18,11.68,50.4,22.65,97.04,31.95,137.09,17.95,77.3,30.25,129.93,32.04,137.07,8,32,47.82,18.09,82.82,8.09" style="fill: none; stroke: #f5f5f5; stroke-miterlimit: 10; stroke-width: 5px;"/>
    </g>
  </g>
  <g id="Bottom">
    <g id="Bottom-NoKeys">
      <g id="Bottom-Trackpad">
        <path d="M1432.66,1457.26c31.91-11.53,32.13-10.94,64.06-22.41,31.93-11.47,33.12-8.15,65.05-19.62,31.93-11.47,30.65-15.03,62.59-26.5,31.93-11.47,32.34-10.35,64.27-21.81,31.93-11.47,31.41-12.9,63.32-24.44,12.91-4.83,13.86-19.67,1.25-24.41-36.75-13.8-36.89-13.43-73.64-27.23s-36.18-15.33-72.93-29.13-36.24-15.17-72.99-28.97c-10.97-4.12-23.64-2.05-34.98,1.82-38.17,13.05-38.79,11.22-76.96,24.26-38.17,13.05-38,13.53-76.17,26.58-38.17,13.05-37.9,13.82-76.07,26.87s-38.67,11.59-76.84,24.64c-15.94,5.45-15.94,26.91-.64,33.01,34.37,14.41,33.58,16.3,67.9,30.85,34.32,14.55,33.8,15.76,68.12,30.31,34.32,14.55,33.88,15.61,68.24,30.06,11.44,4.56,24.62.54,36.43-3.88Z" style="fill: none; stroke: #f5f5f5; stroke-miterlimit: 10; stroke-width: 5px;"/>
      </g>
      <g id="Bottom-Panel">
        <path d="M1051.83,1636.5c69.36-24.86,70.1-22.79,139.46-47.63,69.37-24.84,69.11-25.55,138.48-50.39q69.37-24.84,138.75-49.63c69.37-24.84,69.55-24.33,138.91-49.17,69.37-24.84,68.97-25.96,138.33-50.8,69.37-24.84,69.59-24.21,138.96-49.05,69.37-24.84,69.72-23.85,139.09-48.69q69.37-24.84,138.72-49.74c11.01-4.12,10.51-22.13-.63-26.21-74.65-26.25-75.51-23.81-150.19-49.98-74.68-26.17-74.21-27.52-148.89-53.69-74.68-26.17-75.01-25.22-149.69-51.4-74.68-26.18-74.23-27.47-148.91-53.65q-74.68-26.18-149.45-52.13c-2.52-.92-19.07-5.12-21.62-4.35-68.39,19.68-68.89,17.96-137.28,37.62-68.4,19.67-68.06,20.84-136.46,40.5q-68.4,19.67-136.84,39.18c-68.4,19.67-68.16,20.48-136.56,40.15-68.4,19.67-68.86,18.07-137.26,37.74-68.4,19.67-68.21,20.33-136.61,40q-68.4,19.67-136.74,39.55c-68.4,19.67-68.87,18.04-137.26,37.77-11.06,3.31-11.55,20.12-1.03,25.21q62.09,29.15,124.21,58.24c62.12,29.09,62.39,28.51,124.51,57.59,62.12,29.09,61.03,31.42,123.15,60.5,62.12,29.09,63.33,26.5,125.45,55.58,62.12,29.09,61.37,30.69,123.5,59.78s62.7,27.86,124.81,56.97c3.07,1.48,5.94,1.31,9.09.13Z" style="fill: none; stroke: #f5f5f5; stroke-miterlimit: 10; stroke-width: 5px;"/>
      </g>
      <g id="Bottom-Depth">
        <path d="M298.85,1264.87c-34.31,10.86-38.42,19.21-38.42,49.21,0,30,3.92,31.85,28.87,42.95,71.66,31.88,59.11,26.11,142.76,65,42.43,19.73,90.83,43.47,141.75,67.2,46.79,21.8,95.34,44.37,142.19,66.27,50.75,23.72,100.11,45.37,142.61,65.37,73.2,34.44,127.9,60.16,141.67,67.43,47.82,25.26,55.77,17.62,107.24-4.04,63.38-26.68,51.41-16.01,130.62-43.26,37.72-12.98,81.34-29.74,129.51-46.32,40.95-14.09,85.4-27.42,130.64-43,42.52-14.64,85.97-30.59,129.73-45.67s87.53-30.09,130.05-44.75c45.24-15.6,89.06-30.76,130-44.89,48.13-16.62,92.32-31.72,130.04-44.78,75.44-26.13,125.1-43.71,129.73-45.62,17-7,24.87-3.51,25.76-19.75,2.14-39.03-3.12-39.05-4.71-78.11" style="fill: none; stroke: #f5f5f5; stroke-miterlimit: 10; stroke-width: 5px;"/>
      </g>
    </g>
    <g id="Keys">
      <g id="Keyboard_Row_1" data-name="Keyboard Row 1">
        <g>
          <path d="M1352.92,1032.75c33.67-11.27,34.04-10.17,67.71-21.44,5.89-1.97,5.89-10.8-.05-12.54-16.15-4.73-16.33-4.12-32.47-8.84-4.21-1.23-9-2.67-13.22-1.47-36.19,10.29-36.14,10.47-72.34,20.76-6.05,1.72-5.67,10.49.3,12.4,18.1,5.76,18.05,5.94,36.15,11.7,4.71,1.5,9.23,1.01,13.93-.56Z" style="fill: none; stroke: #f5f5f5; stroke-miterlimit: 10; stroke-width: 5px;"/>
          <path d="M1246.91,1068.58c36.94-11.41,37.06-11.02,74-22.42,5.33-1.65,4.95-9.94-.59-11.91-20.08-7.33-20.34-6.6-40.42-13.93-3.93-1.4-8.07-2.89-11.9-1.91-36.82,10.29-36.71,10.69-73.54,20.96-5.48,1.39-4.81,9.36.77,11.49,19.47,8.34,19.12,9.15,38.58,17.51,4.4,1.68,8.86,1.53,13.1.22Z" style="fill: none; stroke: #f5f5f5; stroke-miterlimit: 10; stroke-width: 5px;"/>
          <path d="M1144.53,1098.76c36.94-11.41,36.9-11.54,73.84-22.95,5.33-1.65,4.75-9.62-.79-11.58-20.08-7.33-20.02-7.48-40.1-14.81-3.93-1.4-8.33-2.8-12.16-1.83-36.82,10.29-36.25,12.32-73.08,22.59-5.48,1.39-4.95,7.57.63,9.7,19.47,8.34,19.32,8.68,38.78,17.04,4.4,1.68,8.64,3.16,12.88,1.84Z" style="fill: none; stroke: #f5f5f5; stroke-miterlimit: 10; stroke-width: 5px;"/>
          <path d="M1042.62,1129.15c36.94-11.41,37.08-10.95,74.02-22.36,5.33-1.65,4.19-10.53-1.35-12.5-20.08-7.33-19.4-9.2-39.47-16.53-3.93-1.4-8.78-1.41-12.61-.44-36.82,10.29-36.52,11.39-73.35,21.66-5.48,1.39-4.83,8.71.74,10.84,19.47,8.34,19.57,8.11,39.02,16.47,4.4,1.68,8.75,4.18,12.99,2.87Z" style="fill: none; stroke: #f5f5f5; stroke-miterlimit: 10; stroke-width: 5px;"/>
          <path d="M938.64,1156.23c36.94-11.41,36.79-11.89,73.73-23.3,5.33-1.65,4.88-10.82-.67-12.79-20.08-7.33-20.33-6.63-40.41-13.96-3.93-1.4-8.12-2.31-11.95-1.33-36.82,10.29-37.1,9.29-73.92,19.56-5.48,1.39-4.99,11.67.59,13.8q19.47,8.34,38.94,16.64c4.4,1.68,9.44,2.69,13.69,1.38Z" style="fill: none; stroke: #f5f5f5; stroke-miterlimit: 10; stroke-width: 5px;"/>
          <path d="M836.8,1185.26c36.94-11.41,36.32-13.42,73.26-24.83,5.33-1.65,4.77-8.69-.78-10.66-20.08-7.33-20.03-7.46-40.1-14.79-3.93-1.4-8.11-2.97-11.94-1.99-36.82,10.29-36.74,10.56-73.57,20.83-5.48,1.39-5.29,10.88.29,13.01,19.47,8.34,19.54,8.16,39,16.52,4.4,1.68,9.6,3.23,13.84,1.92Z" style="fill: none; stroke: #f5f5f5; stroke-miterlimit: 10; stroke-width: 5px;"/>
          <path d="M735.37,1214.87c36.94-11.41,36.88-11.61,73.82-23.02,5.33-1.65,4.29-8.14-1.26-10.11-20.08-7.33-19.58-8.69-39.66-16.02-3.93-1.4-8.09-2.32-11.92-1.35-36.82,10.29-36.66,10.87-73.49,21.14-5.48,1.39-5.09,9.25.49,11.38,19.47,8.34,19.42,8.43,38.88,16.79,4.4,1.68,8.9,2.5,13.14,1.19Z" style="fill: none; stroke: #f5f5f5; stroke-miterlimit: 10; stroke-width: 5px;"/>
          <path d="M625.83,1244.12c36.94-11.41,37.5-9.59,74.44-21,5.33-1.65,4.35-8.8-1.2-10.77-20.08-7.33-19.55-8.79-39.62-16.12-3.93-1.4-8.07-1.08-11.89-.11-36.82,10.29-36.87,10.1-73.7,20.37-5.48,1.39-5.11,9.32.47,11.45,19.47,8.34,18.9,9.66,38.36,18.02,4.4,1.68,8.9-.53,13.14-1.84Z" style="fill: none; stroke: #f5f5f5; stroke-miterlimit: 10; stroke-width: 5px;"/>
          <path d="M518.7,1273.82c36.94-11.41,37.23-10.47,74.17-21.88,5.33-1.65,4.79-10-.75-11.96-20.08-7.33-19.64-8.53-39.72-15.87-3.93-1.4-8.37.04-12.19,1.02-36.82,10.29-36.9,10.01-73.72,20.29-5.48,1.39-5.16,9.32.42,11.45,19.47,8.34,18.62,10.32,38.07,18.69,4.4,1.68,9.48-.41,13.72-1.72Z" style="fill: none; stroke: #f5f5f5; stroke-miterlimit: 10; stroke-width: 5px;"/>
          <path d="M428.48,1300.58c24.07-8.09,23.71-9.17,47.79-17.22,4.04-.9,3.17-8.65-1.47-11.14-12.85-7.18-13.36-6.27-26.2-13.46-3.29-1.77-6.28-2.52-9.2-2.06q-29.08,8.1-58.2,16.09c-4.19.65-2.88,8.19,1.81,10.83,17.32,7.44,16.68,8.89,34.02,16.27,3.7,2.09,8.23,1.42,11.45.7Z" style="fill: none; stroke: #f5f5f5; stroke-miterlimit: 10; stroke-width: 5px;"/>
        </g>
      </g>
      <g id="Keyboard_Row_2" data-name="Keyboard Row 2">
        <g>
          <path d="M1332.04,1091.68c33.67-11.27,33.62-11.42,67.29-22.69,5.89-1.97,6.17-10.3.22-12.04-16.15-4.73-16.42-3.8-32.57-8.52-4.21-1.23-8.6-1.58-12.83-.38-36.19,10.29-36.23,10.16-72.43,20.45-6.05,1.72-6.18,10.36-.21,12.26,18.1,5.76,17.67,7.14,35.77,12.9,4.71,1.5,10.06-.4,14.75-1.97Z" style="fill: none; stroke: #f5f5f5; stroke-miterlimit: 10; stroke-width: 5px;"/>
          <path d="M1225.8,1123.83c36.94-11.41,37.01-11.18,73.95-22.59,5.33-1.65,5.44-10.78-.11-12.75-20.08-7.33-20.18-7.03-40.26-14.37-3.93-1.4-8.42-.55-12.24.43-36.82,10.29-36.9,10.01-73.73,20.28-5.48,1.39-5.53,10.87.05,13,19.47,8.34,19.69,7.81,39.15,16.17,4.4,1.68,8.95,1.14,13.19-.17Z" style="fill: none; stroke: #f5f5f5; stroke-miterlimit: 10; stroke-width: 5px;"/>
          <path d="M1123.47,1154.18c36.94-11.41,36.85-11.7,73.79-23.11,5.33-1.65,5.38-11.14-.17-13.11-20.08-7.33-20.45-6.31-40.52-13.65-3.93-1.4-8.38-1.92-12.21-.95q-36.82,10.29-73.64,20.58c-5.48,1.39-5.56,11.66.02,13.79,19.47,8.34,20.07,6.9,39.52,15.26,4.4,1.68,8.97,2.5,13.21,1.19Z" style="fill: none; stroke: #f5f5f5; stroke-miterlimit: 10; stroke-width: 5px;"/>
          <path d="M1021.53,1184.47c36.94-11.41,36.55-12.66,73.49-24.07,5.33-1.65,5.36-10.5-.19-12.47-20.08-7.33-20.72-5.55-40.8-12.89-3.93-1.4-8.21-3.81-12.04-2.84-36.82,10.29-36.32,12.08-73.15,22.35-5.48,1.39-5.58,10.11,0,12.24,19.47,8.34,19.87,7.39,39.32,15.75,4.4,1.68,9.12,3.24,13.36,1.93Z" style="fill: none; stroke: #f5f5f5; stroke-miterlimit: 10; stroke-width: 5px;"/>
          <path d="M917.63,1214.78c36.94-11.41,36.46-12.97,73.4-24.38,5.33-1.65,5.32-10.39-.23-12.36-20.08-7.33-20.52-6.12-40.59-13.45-3.93-1.4-8.31-3.12-12.14-2.14-36.82,10.29-36.43,11.69-73.26,21.96-5.48,1.39-5.66,10.53-.08,12.66,19.47,8.34,19.99,7.09,39.45,15.45,4.4,1.68,9.21,3.57,13.45,2.26Z" style="fill: none; stroke: #f5f5f5; stroke-miterlimit: 10; stroke-width: 5px;"/>
          <path d="M815.19,1241.9q36.94-11.41,73.87-22.86c5.33-1.65,4.96-9.67-.59-11.64-20.08-7.33-20.35-6.59-40.42-13.92-3.93-1.4-8.21-3.69-12.04-2.71-36.82,10.29-36.3,12.15-73.13,22.43-5.48,1.39-5.27,9.15.31,11.28,19.47,8.34,19.28,8.76,38.73,17.12,4.4,1.68,9.03,1.62,13.27.31Z" style="fill: none; stroke: #f5f5f5; stroke-miterlimit: 10; stroke-width: 5px;"/>
          <path d="M714.04,1272.41c36.94-11.41,37.01-11.19,73.95-22.6,5.33-1.65,4.67-8.45-.88-10.42-20.08-7.33-20.04-7.43-40.12-14.76-3.93-1.4-7.99-3.22-11.82-2.24-36.82,10.29-36.6,11.11-73.42,21.39-5.48,1.39-4.87,8.89.71,11.02,19.47,8.34,19.21,8.95,38.67,17.31,4.4,1.68,8.67,1.62,12.91.31Z" style="fill: none; stroke: #f5f5f5; stroke-miterlimit: 10; stroke-width: 5px;"/>
          <path d="M605.05,1303.44c36.94-11.41,37.21-10.53,74.15-21.94,5.33-1.65,4.54-9.35-1.01-11.32-20.08-7.33-19.81-8.07-39.88-15.4-3.93-1.4-7.93-1.02-11.76-.04-36.82,10.29-37.42,8.13-74.25,18.4-5.48,1.39-4.48,10.7,1.1,12.82,19.47,8.34,19.18,8.98,38.64,17.34,4.4,1.68,8.76,1.45,13,.14Z" style="fill: none; stroke: #f5f5f5; stroke-miterlimit: 10; stroke-width: 5px;"/>
          <path d="M497.48,1331.71c36.94-11.41,37.58-9.32,74.52-20.73,5.33-1.65,4.35-10.06-1.19-12.03-20.08-7.33-19.89-7.84-39.97-15.17-3.93-1.4-8.09-2-11.92-1.03-36.82,10.29-36.88,10.06-73.71,20.33-5.48,1.39-4.71,9.36.87,11.49,19.47,8.34,19.01,9.43,38.46,17.79,4.4,1.68,8.68.66,12.92-.65Z" style="fill: none; stroke: #f5f5f5; stroke-miterlimit: 10; stroke-width: 5px;"/>
          <path d="M1432.18,1061.19c34.55-10.63,35.05-8.98,69.61-19.59,4.04-.9,1.99-8.91-2.65-11.4-23.18-5.39-23.09-5.59-46.31-10.8-3.29-1.77-6.73-2.44-9.66-1.99-29.08,8.1-28.72,9.46-57.82,17.5-4.19.65-3.42,8.21,1.26,10.85,17.32,7.44,17.7,6.55,35.05,13.94,3.7,2.09,7.31,2.21,10.53,1.49Z" style="fill: none; stroke: #f5f5f5; stroke-miterlimit: 10; stroke-width: 5px;"/>
        </g>
      </g>
      <g id="Keyboard_Row_3" data-name="Keyboard Row 3">
        <g>
          <path d="M1493.42,1093.27c42.15-12.84,42.68-11.09,84.83-23.95,5.89-1.97,5.38-11.99-.57-13.73-22.69-7.61-22.87-7.08-45.55-14.72-4.21-1.23-8.22-.87-12.44.33-46.2,13.76-46.59,12.46-92.8,26.22-6.05,1.72-6.13,10.72-.16,12.62,26.07,6.91,25.89,7.57,51.97,14.46,4.71,1.5,10.03.34,14.72-1.23Z" style="fill: none; stroke: #f5f5f5; stroke-miterlimit: 10; stroke-width: 5px;"/>
          <path d="M1387.11,1128.23c36.94-11.41,37.28-10.29,74.22-21.7,5.33-1.65,4.9-11.32-.64-13.29-20.08-7.33-20.58-5.93-40.66-13.26-3.93-1.4-7.44-.85-11.27.12-36.82,10.29-37.44,8.08-74.26,18.35-5.48,1.39-5.12,10.87.45,12.99,19.47,8.34,19.06,9.3,38.52,17.66,4.4,1.68,9.39.44,13.63-.87Z" style="fill: none; stroke: #f5f5f5; stroke-miterlimit: 10; stroke-width: 5px;"/>
          <path d="M1284.56,1157.87c36.94-11.41,37.13-10.78,74.07-22.19,5.33-1.65,4.97-10.76-.58-12.73-20.08-7.33-20.33-6.64-40.41-13.97-3.93-1.4-7.83-1.01-11.66-.04-36.82,10.29-37.06,9.44-73.88,19.71-5.48,1.39-5.92,11.66-.34,13.79,19.47,8.34,20.29,6.41,39.74,14.77,4.4,1.68,8.81,1.97,13.05.66Z" style="fill: none; stroke: #f5f5f5; stroke-miterlimit: 10; stroke-width: 5px;"/>
          <path d="M1182.74,1188.52q36.94-11.41,73.84-22.94c5.33-1.65,5.08-11.57-.47-13.54-20.08-7.33-20.7-5.6-40.78-12.94-3.93-1.4-8.07-3.01-11.9-2.04-36.82,10.29-36.47,11.53-73.3,21.8-5.48,1.39-5.64,10.05-.06,12.18,19.47,8.34,19.79,7.53,39.25,15.89,4.4,1.68,9.17,2.88,13.42,1.57Z" style="fill: none; stroke: #f5f5f5; stroke-miterlimit: 10; stroke-width: 5px;"/>
          <path d="M1078.52,1214.82c36.94-11.41,36.83-11.77,73.77-23.18,5.33-1.65,5.48-10.92-.06-12.89-20.08-7.33-20.99-4.83-41.06-12.16-3.93-1.4-7.87-3.4-11.7-2.43-36.82,10.29-36.42,11.73-73.25,22.01-5.48,1.39-4.98,8.01.6,10.14,19.47,8.34,18.34,10.98,37.79,19.34,4.4,1.68,9.67.48,13.91-.83Z" style="fill: none; stroke: #f5f5f5; stroke-miterlimit: 10; stroke-width: 5px;"/>
          <path d="M976,1241.68c36.94-11.41,37.28-10.32,74.22-21.72,5.33-1.65,5.33-10.15-.22-12.12-20.08-7.33-20.99-4.82-41.07-12.15-3.93-1.4-7.58-3.72-11.41-2.75-36.82,10.29-36.41,11.77-73.23,22.04-5.48,1.39-4.82,7.12.76,9.25,19.47,8.34,18.7,10.16,38.16,18.52,4.4,1.68,8.56.25,12.8-1.06Z" style="fill: none; stroke: #f5f5f5; stroke-miterlimit: 10; stroke-width: 5px;"/>
          <path d="M875,1272.66c36.94-11.41,37.41-9.87,74.35-21.28,5.33-1.65,4.69-9.19-.85-11.16q-20.08-7.33-40.14-14.71c-3.93-1.4-8.15-3.05-11.98-2.07-36.82,10.29-36.49,11.49-73.31,21.77-5.48,1.39-4.83,8.42.75,10.54,19.47,8.34,19.5,8.26,38.96,16.62,4.4,1.68,7.98,1.61,12.22.29Z" style="fill: none; stroke: #f5f5f5; stroke-miterlimit: 10; stroke-width: 5px;"/>
          <path d="M766.02,1303.73c36.94-11.41,37.39-9.96,74.33-21.37,5.33-1.65,4.88-9.65-.67-11.62-20.08-7.33-20.18-7.06-40.25-14.39-3.93-1.4-7.91-1.83-11.74-.85q-36.82,10.29-73.62,20.66c-5.48,1.39-5.12,9.17.46,11.3,19.47,8.34,19.16,9.04,38.62,17.4,4.4,1.68,8.63.18,12.88-1.13Z" style="fill: none; stroke: #f5f5f5; stroke-miterlimit: 10; stroke-width: 5px;"/>
          <path d="M659.09,1334.07c36.94-11.41,36.99-11.25,73.93-22.66,5.33-1.65,5.32-11.28-.23-13.25-20.08-7.33-20.85-5.22-40.92-12.55-3.93-1.4-7.77-2.31-11.6-1.33-36.82,10.29-36.62,11.02-73.44,21.29-5.48,1.39-5.17,8.35.41,10.48,19.47,8.34,19.03,9.36,38.49,17.72,4.4,1.68,9.13,1.61,13.37.3Z" style="fill: none; stroke: #f5f5f5; stroke-miterlimit: 10; stroke-width: 5px;"/>
          <path d="M568.67,1360.19c24.07-8.09,23.65-9.35,47.74-17.4,4.04-.9,2.96-8.07-1.69-10.56-12.85-7.18-12.92-7.04-25.76-14.23-3.29-1.77-6.86-3.69-9.79-3.24-29.08,8.1-28.84,8.99-57.95,17.02-4.19.65-2.35,7.91,2.33,10.55,17.32,7.44,17.61,6.74,34.95,14.13,3.7,2.09,6.94,4.45,10.16,3.73Z" style="fill: none; stroke: #f5f5f5; stroke-miterlimit: 10; stroke-width: 5px;"/>
        </g>
      </g>
      <g id="Keyboard_Row_2-2" data-name="Keyboard Row 2">
        <g>
          <path d="M1378.99,1178.07c48.82-15.29,48.64-15.85,97.46-31.14,5.31-1.7,5.12-7.92-.44-9.84-21.18-8.06-20.93-8.72-42.1-16.81-3.95-1.36-8.29-1.8-12.1-.79-47.73,15.11-47.88,14.62-95.63,29.7-5.47,1.45-4.93,11.18.67,13.26,19.55,8.15,19.99,7.08,39.53,15.24,4.42,1.64,8.38,1.73,12.61.38Z" style="fill: none; stroke: #f5f5f5; stroke-miterlimit: 10; stroke-width: 5px;"/>
          <path d="M1276.83,1209c36.83-11.77,36.64-12.36,73.46-24.13,5.31-1.7,5.57-9.9,0-11.82-20.15-7.13-20.52-6.07-40.67-13.2-3.95-1.36-8.3-1.94-12.12-.93-36.72,10.66-36.54,11.27-73.26,21.91-5.47,1.45-5.65,11.03-.05,13.11,19.55,8.15,19.76,7.61,39.3,15.77,4.42,1.64,9.11.64,13.33-.71Z" style="fill: none; stroke: #f5f5f5; stroke-miterlimit: 10; stroke-width: 5px;"/>
          <path d="M1175.29,1240.6q36.83-11.77,73.61-23.66c5.31-1.7,5.17-11.44-.4-13.35-20.15-7.13-20.66-5.67-40.81-12.8-3.95-1.36-8.27-2.44-12.09-1.43-36.72,10.66-36.32,12.03-73.04,22.67-5.47,1.45-5.55,9.88.05,11.95,19.55,8.15,19.64,7.93,39.18,16.09,4.42,1.64,9.27,1.88,13.5.53Z" style="fill: none; stroke: #f5f5f5; stroke-miterlimit: 10; stroke-width: 5px;"/>
          <path d="M1071.77,1272.18c36.83-11.77,36.71-12.12,73.54-23.9,5.31-1.7,4.68-10.64-.89-12.55-20.15-7.13-20.48-6.18-40.63-13.31-3.95-1.36-8.11-3.22-11.93-2.21-36.72,10.66-36.23,12.35-72.95,22.99-5.47,1.45-5.71,10.03-.11,12.11,19.55,8.15,20.27,6.39,39.81,14.56,4.42,1.64,8.93,3.68,13.16,2.32Z" style="fill: none; stroke: #f5f5f5; stroke-miterlimit: 10; stroke-width: 5px;"/>
          <path d="M969.95,1301.38c36.83-11.77,36.47-12.9,73.29-24.67,5.31-1.7,5.07-9.69-.49-11.6-20.15-7.13-20.47-6.23-40.61-13.36-3.95-1.36-8.22-3.18-12.04-2.17-36.72,10.66-36.1,12.79-72.83,23.42-5.47,1.45-5.58,9.24.02,11.31,19.55,8.15,19.99,7.04,39.53,15.21,4.42,1.64,8.9,3.21,13.13,1.86Z" style="fill: none; stroke: #f5f5f5; stroke-miterlimit: 10; stroke-width: 5px;"/>
          <path d="M868.84,1332.06c36.83-11.77,36.97-11.33,73.79-23.1,5.31-1.7,5.14-10.37-.42-12.28-20.15-7.13-20.49-6.16-40.64-13.29-3.95-1.36-8.16-2.18-11.98-1.17-36.72,10.66-36.3,12.1-73.02,22.73-5.47,1.45-5.37,8.78.23,10.86,19.55,8.15,19.41,8.47,38.95,16.64,4.42,1.64,8.86.97,13.09-.38Z" style="fill: none; stroke: #f5f5f5; stroke-miterlimit: 10; stroke-width: 5px;"/>
          <path d="M652.22,1390.95c90.31-26.82,91.55-22.65,181.86-49.48,5.31-1.7,5.52-12.25-.04-14.16-20.15-7.13-19.86-7.93-40.01-15.06-3.95-1.36-8.95,2.26-12.77,3.27-90.21,25.66-91.06,22.68-181.28,48.33-5.47,1.45-4.55,12.18,1.05,14.26,19.55,8.15,19.1,9.23,38.64,17.4,4.42,1.64,8.33-3.19,12.55-4.54Z" style="fill: none; stroke: #f5f5f5; stroke-miterlimit: 10; stroke-width: 5px;"/>
          <path d="M1507.94,1138.04q72.94-22.98,145.83-46.11c4.03-.94,2.84-9.11-1.83-11.56-23.23-5.16-23.38-4.4-46.65-9.38-3.31-1.73-7.06-1.98-9.99-1.49-75.99,19.43-76.09,19-152.09,38.38-4.19.69-2.39,9.31,2.32,11.9,25.86,8.47,25.62,9.1,51.5,17.48,3.72,2.05,7.69,1.54,10.9.78Z" style="fill: none; stroke: #f5f5f5; stroke-miterlimit: 10; stroke-width: 5px;"/>
        </g>
      </g>
      <g id="Keyboard_Row_3-2" data-name="Keyboard Row 3">
        <g>
          <path d="M1658.79,1153.96c41.69-14.66,41.44-15.35,83.13-30.02,6.01-2.12,5.05-11.83-1.5-13.96-23.74-7.96-23.7-8.09-47.44-16.05-4.65-1.51-9.88-1.97-14.22-.7q-41.64,13.34-83.28,26.68c-6.21,1.82-5.14,12.95,1.46,15.27,23.12,9.17,22.94,9.61,46.06,18.81,5.21,1.83,11,1.65,15.78-.04Z" style="fill: none; stroke: #f5f5f5; stroke-miterlimit: 10; stroke-width: 5px;"/>
          <path d="M1546.48,1186.93c37.12-11.98,37.19-11.77,74.31-23.75,5.35-1.73,3.69-10.48-2.36-12.81-21.91-8.66-21.97-8.49-43.88-17.16-4.28-1.65-8.28-2.09-12.15-1.08-37.14,10.72-37.47,9.57-74.61,20.27-5.55,1.44-4.19,11.92,1.91,14.43,21.41,9.79,21.69,9.16,43.09,18.97,4.81,1.98,9.43,2.51,13.69,1.13Z" style="fill: none; stroke: #f5f5f5; stroke-miterlimit: 10; stroke-width: 5px;"/>
          <path d="M1445.21,1219.94c37.33-11.66,37.75-10.31,75.08-21.97,5.38-1.68,3.08-9.95-3.07-12.45-22.29-9.26-21.46-11.26-43.75-20.53-4.36-1.77-8.8-.7-12.7.26q-37.36,10.38-74.72,20.77c-5.58,1.38-4.31,10.17,1.9,12.85,21.81,10.41,21.45,11.16,43.26,21.6,4.9,2.11,9.73.81,14.01-.53Z" style="fill: none; stroke: #f5f5f5; stroke-miterlimit: 10; stroke-width: 5px;"/>
          <path d="M1179.72,1304.37c59.15-19.41,59.37-18.75,118.54-38.09,59.17-19.35,58.91-20.14,118.05-39.57,5.24-1.9,5.04-9.7-.59-11.39-27.47-10.19-27.64-9.75-55.09-19.99-4-1.2-8.24-1.42-12.02-.27-62.63,18.57-62.37,19.44-125,37.99-62.63,18.56-62.89,17.67-125.52,36.26-5.41,1.66-4.66,10.07,1.02,11.92,33.83,11.93,33.51,12.84,67.33,24.79,4.48,1.46,9.1-.13,13.28-1.65Z" style="fill: none; stroke: #f5f5f5; stroke-miterlimit: 10; stroke-width: 5px;"/>
          <path d="M1051.68,1344.14c43.92-14.44,44.02-14.16,87.94-28.61,6.33-2.08,4.72-12.49-2.38-15.13-25.72-9.84-25.51-10.41-51.23-20.26-5.03-1.88-10.84-3.35-15.42-2.13-43.92,12.98-43.59,14.11-87.52,27.07-6.56,1.75-4.9,13.14,2.25,15.99q25.12,11.17,50.25,22.3c5.65,2.25,11.06,2.43,16.1.77Z" style="fill: none; stroke: #f5f5f5; stroke-miterlimit: 10; stroke-width: 5px;"/>
          <path d="M940.4,1379.68c40.21-13.17,40.27-12.97,80.48-26.14,5.8-1.9,4.67-12.6-1.84-15.05-30.07-11.13-30.57-9.78-60.64-20.91-4.61-1.73-9.18-2.17-13.37-1.06-40.21,11.83-40.63,10.36-80.85,22.17-6,1.59-4.24,12.95,2.32,15.59,29.5,12.38,29.45,12.51,58.95,24.89,5.18,2.08,10.34,2.02,14.96.5Z" style="fill: none; stroke: #f5f5f5; stroke-miterlimit: 10; stroke-width: 5px;"/>
          <path d="M747.59,1437.61c23.65-9.25,23.58-9.44,47.24-18.65,3.99-1.1,2.67-9.18-2.08-11.44-13.18-6.55-13.35-6.21-26.53-12.77-3.37-1.6-6.25-.07-9.15.53-28.66,9.51-29.45,7.05-58.13,16.49-4.16.85-2.23,9.46,2.58,11.87,17.67,6.59,17.16,7.88,34.84,14.41,3.8,1.9,8.06.43,11.24-.44Z" style="fill: none; stroke: #f5f5f5; stroke-miterlimit: 10; stroke-width: 5px;"/>
          <path d="M835.2,1413.87c32.99-11.48,32.61-12.57,65.61-24.03,5.33-1.6,4.05-11.58-2.13-14.24-28.54-12.12-29.12-10.76-57.66-22.87-4.38-1.88-8.34-1.95-12.21-1.05-32.08,11.61-31.7,12.67-63.82,24.19-5.53,1.29-4.77,10.63,1.47,13.47,27.03,11.89,27.53,10.77,54.56,22.66,4.93,2.25,9.93,3.14,14.18,1.87Z" style="fill: none; stroke: #f5f5f5; stroke-miterlimit: 10; stroke-width: 5px;"/>
        </g>
      </g>
    </g>
  </g>
</svg>