<?xml version="1.0" encoding="UTF-8"?>
<svg id="wonky-wyatt" xmlns="http://www.w3.org/2000/svg" viewBox="0 0 628.11 1532.4">
  <path d="M611.96,856.78c-17.52,0-17.52.16-35.05.16s-17.53-.69-35.05-.69-17.52-.65-35.05-.65c-17.52,0-17.52.36-35.05.36-17.52,0-17.52-.48-35.05-.48s-17.52-.28-35.05-.28-17.52.81-35.05.81-17.53.35-35.05.35-17.53-1.1-35.05-1.1-17.52.94-35.05.94c-17.52,0-17.52,2.25-35.05,2.25s-17.53-.57-35.05-.57-17.53.37-35.05.37-17.53-3.11-35.05-3.11c-17.53,0-17.53.96-35.05.96s-17.53-.83-35.06-.83-17.53,1.77-35.06,1.77c-6.6,0-12.96-5.69-12.96-12.29,0-18.26,1.64-18.26,1.64-36.52,0-18.26-2.2-18.26-2.2-36.52,0-18.26,1.4-18.26,1.4-36.52s-1.48-18.26-1.48-36.52.41-18.26.41-36.52,1.89-18.26,1.89-36.52-1.65-18.26-1.65-36.52c0-18.26-.46-18.26-.46-36.52,0-18.26,3.37-18.26,3.37-36.52,0-18.26-1.18-18.26-1.18-36.52s-.03-18.26-.03-36.52-1.04-18.26-1.04-36.53-.61-18.26-.61-36.52c0-18.26.77-18.26.77-36.53s.96-18.26.96-36.53c0-6.6,4.58-12.46,11.18-12.46,17.52,0,17.52-.61,35.05-.61s17.53,2.74,35.05,2.74,17.52-2.4,35.05-2.4,17.52.37,35.05.37,17.52,1.37,35.05,1.37,17.52.79,35.05.79,17.52-.26,35.05-.26,17.53-1.64,35.05-1.64,17.53,1.88,35.05,1.88,17.52-3.59,35.05-3.59,17.52,3.38,35.05,3.38,17.53-3.27,35.05-3.27,17.53.38,35.05.38,17.53-.2,35.05-.2,17.53,2.41,35.05,2.41,17.53-1.97,35.06-1.97,17.53,3.02,35.06,3.02c6.6,0,13.64,3.45,13.64,10.05,0,18.26-2.07,18.26-2.07,36.52,0,18.26-.59,18.26-.59,36.52,0,18.26-.35,18.26-.35,36.52s2.83,18.26,2.83,36.52-.49,18.26-.49,36.52-.93,18.26-.93,36.52-1.35,18.26-1.35,36.52c0,18.26,2.84,18.26,2.84,36.52,0,18.26-.92,18.26-.92,36.52,0,18.26-1.67,18.26-1.67,36.52s1.52,18.26,1.52,36.52,1.1,18.26,1.1,36.53-1.14,18.26-1.14,36.52c0,18.26-1.46,18.26-1.46,36.53s1.95,18.26,1.95,36.53c0,6.6-6.3,12.03-12.9,12.03Z" style="fill: none; stroke: #000; stroke-miterlimit: 10; stroke-width: 5px;"/>
  <path d="M231.32,162.68c0,12.13-1.69,24.1-6.06,34.65s-13.19,19.33-21.43,27.57-16.69,16.76-27.63,21.3c-10.55,4.38-22.46,4.15-34.59,4.15s-23.27-1.64-33.82-6.01-21.73-9.62-29.97-17.87-12.7-19.29-17.23-30.23c-4.38-10.55-9.33-21.43-9.33-33.56s4.14-23.35,8.52-33.9c4.54-10.94,10.53-20.93,18.77-29.17,8.24-8.24,18.52-13.55,29.46-18.08,10.55-4.38,21.48-8.88,33.61-8.88s23.94,2.38,34.5,6.76,19.91,12.39,28.15,20.63,14.73,17.78,19.26,28.72,7.8,21.79,7.8,33.93Z" style="fill: none; stroke: #000; stroke-miterlimit: 10; stroke-width: 5px;"/>
  <path d="M517.98,128.55c0,11.4.45,22.77-2.37,33.29s-8.02,21.09-13.53,30.62c-5.59,9.67-12.73,18.37-20.58,26.21s-16.85,14.46-26.51,20.06c-9.53,5.51-19.51,10.88-30.39,13.79s-21.81,3.26-33.22,3.26-22.5-1.19-33.02-4.01-20.79-7.99-30.32-13.5-18.17-12.52-26.01-20.36c-7.84-7.84-14.46-16.53-20.05-26.19-5.51-9.53-9.08-19.75-11.99-30.63s-5.84-21.12-5.84-32.53,1.83-22.33,4.64-32.85c2.91-10.88,6.05-21.72,11.57-31.25,5.59-9.67,13.19-18.05,21.03-25.89s16.85-14.37,26.51-19.96c9.53-5.51,20.05-8.58,30.93-11.49s21.14-4.62,32.54-4.62,22.32.7,32.84,3.51,21.5,6.4,31.03,11.91c9.67,5.59,18.24,12.83,26.08,20.68,7.84,7.84,16.38,15.66,21.98,25.33,5.51,9.53,6.61,21.19,9.52,32.08s5.16,21.14,5.16,32.54Z" style="fill: none; stroke: #000; stroke-miterlimit: 10; stroke-width: 5px;"/>
  <path d="M4.1,683.58c7.3.56,19.36,3.55,35.02,5.94,10.36,1.58,22.52.91,35.51,2.15,11.1,1.06,22.84,4.82,35.3,5.01,11.43.17,23.37-1.48,35.54-2.5,11.54-.96,23.43-2.08,35.28-4.5,11.39-2.32,22.1-7.83,33.48-11.84s22.7-6.33,33.37-12.05,18.76-13.78,28.44-21.19c9.09-6.97,18.25-14.12,26.71-23.04,7.83-8.26,17.77-15.49,24.89-25.59" style="fill: none; stroke: #000; stroke-miterlimit: 10; stroke-width: 5px;"/>
  <path d="M184.45,183.41c0,18.68-16.52,34.3-35.2,34.3s-32.98-15.62-32.98-34.3,14.3-35.07,32.98-35.07,35.2,16.39,35.2,35.07Z"/>
  <path d="M430.68,176.87c0,10.85-5.21,19.73-12.32,26.84s-15.99,12.05-26.84,12.05-19.37-5.3-26.48-12.41c-7.11-7.11-12.45-15.63-12.45-26.48s3.98-20.73,11.09-27.84c7.11-7.11,16.99-13.01,27.84-13.01s19.81,6.81,26.92,13.92c7.11,7.11,12.24,16.07,12.24,26.92Z"/>
  <path d="M203.28,856.75c.02,18.28.38,18.28.4,36.56s-.45,18.28-.43,36.56-.26,18.28-.23,36.55.84,18.28.86,36.55.37,18.28.39,36.56c.02,18.28-1.07,18.28-1.05,36.56.02,18.28.96,18.28.98,36.56.02,18.28,2.28,18.28,2.3,36.56s-.55,18.28-.52,36.56.39,18.28.41,36.56" style="fill: none; stroke: #000; stroke-miterlimit: 10; stroke-width: 5px;"/>
  <path d="M292.37,1310.73c0,12.13-.16,23.8-4.53,34.35-4.54,10.94-10.85,21.25-19.09,29.49s-19.46,12.36-30.4,16.9-21.31,9.54-33.44,9.54-24.45-1.41-35-5.78c-10.94-4.54-18.75-14.26-27-22.51-8.24-8.24-14.31-17.58-18.84-28.51-4.38-10.55-5.63-21.35-5.63-33.48s-.81-23.79,3.57-34.34c4.54-10.94,12.24-19.84,20.48-28.08,8.24-8.24,17.98-13.94,28.92-18.47,10.55-4.38,21.37-6.7,33.51-6.7s23.57.85,34.12,5.22,20,11.76,28.24,20.01c8.24,8.24,14.83,17.57,19.37,28.51s5.74,21.72,5.74,33.85Z" style="fill: none; stroke: #000; stroke-miterlimit: 10; stroke-width: 5px;"/>
  <g>
    <path d="M432.68,855.66c.02,17.69-2.16,17.7-2.14,35.39.02,17.69-.81,17.69-.79,35.39.02,17.69,2.15,17.69,2.17,35.38.02,17.69.71,17.69.72,35.39.02,17.69-1.54,17.7-1.53,35.39.02,17.69,1.35,17.69,1.37,35.39.02,17.69-1.69,17.69-1.68,35.39s-.59,17.69-.57,35.39,1.51,17.69,1.53,35.39-2.44,17.7-2.42,35.39,3.69,17.69,3.7,35.39q.02,17.7,0,35.39c.02,17.7-3.91,17.7-3.89,35.4s.51,17.7.52,35.39" style="fill: none; stroke: #000; stroke-miterlimit: 10; stroke-width: 5px;"/>
    <path d="M522.48,1441.68c0,12.13-3.41,23.74-7.79,34.3-4.54,10.94-12.54,19.48-20.78,27.72s-17.12,15.43-28.06,19.96-21.82,6.24-33.96,6.24-23.51-1.6-34.06-5.98c-10.94-4.54-20.86-10.83-29.1-19.08s-12.54-18.99-17.08-29.93c-4.38-10.55-12.08-21.1-12.08-33.23s6.3-23.27,10.67-33.82c4.54-10.94,11.06-20.28,19.3-28.52,8.24-8.24,17.37-15.29,28.31-19.83,10.55-4.38,21.9-9.66,34.04-9.66s24.03,3.96,34.58,8.33c10.94,4.54,20.93,11.49,29.17,19.74s13.49,18.95,18.02,29.88,8.81,21.74,8.81,33.87Z" style="fill: none; stroke: #000; stroke-miterlimit: 10; stroke-width: 5px;"/>
  </g>
</svg>